<svg viewBox="0 0 512 512" xmlns="http://www.w3.org/2000/svg" role="img" width="512" height="512">
  <title>Mochi</title>
  <desc>Mochi app icon — mascot on mint background.</desc>
  <defs>
    <linearGradient id="mgrad" x1="0" y1="0" x2="0" y2="1">
      <stop offset="0%" stop-color="#4a4a4a"/>
      <stop offset="42%" stop-color="#6d6d6d"/>
      <stop offset="100%" stop-color="#ededea"/>
    </linearGradient>
    <radialGradient id="mhl" cx="42%" cy="30%" r="58%">
      <stop offset="0%" stop-color="#ffffff" stop-opacity="0.30"/>
      <stop offset="100%" stop-color="#ffffff" stop-opacity="0"/>
    </radialGradient>
  </defs>

  <rect width="512" height="512" rx="112" fill="#a3f0d1"/>

  <g transform="translate(86,69) scale(1.7)">
    <path d="M58 64 L66 38 L88 60 Z" fill="#4a4a4a"/>
    <path d="M142 64 L134 38 L112 60 Z" fill="#4a4a4a"/>
    <path d="M40 112 C40 74 58 52 100 52 C142 52 160 74 160 112 L160 168 q-15 20 -30 0 q-15 20 -30 0 q-15 20 -30 0 q-15 20 -30 0 Z"
          fill="url(#mgrad)" stroke="#3a3a3a" stroke-width="1.5"/>
    <ellipse cx="90" cy="86" rx="46" ry="34" fill="url(#mhl)"/>
    <rect x="74" y="88" width="15" height="32" rx="7.5" fill="#f0f0ee"/>
    <rect x="111" y="88" width="15" height="32" rx="7.5" fill="#f0f0ee"/>
    <path d="M94 122 L106 122 L100 130 Z" fill="#f0f0ee"/>
  </g>
</svg>
