<svg viewBox="0 0 640 160" xmlns="http://www.w3.org/2000/svg" role="img" width="640" height="160">
  <title>Mochi</title>
  <desc>Mochi logo — mascot mark with wordmark.</desc>
  <defs>
    <linearGradient id="mgrad" x1="0" y1="0" x2="0" y2="1">
      <stop offset="0%" stop-color="#4a4a4a"/>
      <stop offset="42%" stop-color="#6d6d6d"/>
      <stop offset="100%" stop-color="#ededea"/>
    </linearGradient>
    <radialGradient id="mhl" cx="42%" cy="30%" r="58%">
      <stop offset="0%" stop-color="#ffffff" stop-opacity="0.30"/>
      <stop offset="100%" stop-color="#ffffff" stop-opacity="0"/>
    </radialGradient>
  </defs>

  <g transform="translate(24,20) scale(0.545)">
    <path d="M58 64 L66 38 L88 60 Z" fill="#4a4a4a"/>
    <path d="M142 64 L134 38 L112 60 Z" fill="#4a4a4a"/>
    <path d="M40 112 C40 74 58 52 100 52 C142 52 160 74 160 112 L160 168 q-15 20 -30 0 q-15 20 -30 0 q-15 20 -30 0 q-15 20 -30 0 Z"
          fill="url(#mgrad)" stroke="#3a3a3a" stroke-width="1.5"/>
    <ellipse cx="90" cy="86" rx="46" ry="34" fill="url(#mhl)"/>
    <rect x="74" y="88" width="15" height="32" rx="7.5" fill="#f0f0ee"/>
    <rect x="111" y="88" width="15" height="32" rx="7.5" fill="#f0f0ee"/>
    <path d="M94 122 L106 122 L100 130 Z" fill="#f0f0ee"/>
  </g>

  <text x="155" y="102" font-family="ui-sans-serif, -apple-system, 'Segoe UI', sans-serif" font-size="64" font-weight="700" letter-spacing="-1" fill="#131313">Mochi</text>
</svg>
